<svg xmlns="http://www.w3.org/2000/svg" width="173" height="41" viewBox="0 0 173 41" fill="none">
  <g clip-path="url(#clip0_122_630)">
    <path d="M44.849 32.2443C44.849 33.3962 44.395 34.5009 43.587 35.3154C42.779 36.1299 41.6831 36.5875 40.5405 36.5875H21.7932C20.6505 36.5875 19.5546 36.1299 18.7465 35.3154C17.9386 34.5009 17.4846 33.3962 17.4846 32.2443C17.4846 31.0924 17.9386 29.9877 18.7465 29.1731C19.5546 28.3586 20.6505 27.901 21.7932 27.901H40.5435C41.6855 27.9026 42.7801 28.3609 43.5872 29.1751C44.3944 29.9894 44.8482 31.0932 44.849 32.2443Z" fill="#004FDA"/>
    <path d="M20.81 23.9835L7.10261 35.5742L7.07109 35.5997C6.66541 35.9428 6.19921 36.2058 5.69688 36.3748C4.87572 36.655 3.9898 36.6787 3.15505 36.4429C2.32031 36.2071 1.57561 35.7228 1.01843 35.0532C0.461245 34.3838 0.117521 33.5603 0.0322396 32.6907C-0.0530418 31.8211 0.124091 30.9457 0.540459 30.1792C0.795137 29.7032 1.13744 29.2806 1.54905 28.9337L14.106 18.3153L17.6204 21.2861L17.9702 21.5847L18.0679 21.6641L18.4524 21.9818L20.81 23.9835Z" fill="#F6E300"/>
    <path d="M25.0868 18.185C25.0938 18.2908 25.0938 18.397 25.0868 18.5027V18.6775L25.0679 18.8395C25.0679 18.8903 25.0679 18.9412 25.049 18.9889C25.0333 19.0873 25.0111 19.1858 24.9891 19.2811C24.8795 19.803 24.6743 20.2999 24.3839 20.7459C24.205 21.0256 23.9933 21.2826 23.7536 21.5116L23.5897 21.6577L23.5424 21.6959L20.8097 23.9835L18.4522 21.9882L18.0677 21.6704L17.9699 21.591L17.6201 21.2923L14.1057 18.3216L17.6201 15.3477L17.9699 15.0522L18.0677 14.9727L18.4364 14.655L20.8097 12.6503L23.5519 14.9696L23.6464 15.0522L23.7127 15.1062L23.7379 15.1349C23.9761 15.3569 24.1877 15.6065 24.3682 15.8783C24.6318 16.2786 24.8258 16.7213 24.9418 17.1874C24.9418 17.1874 24.9418 17.2033 24.9418 17.2096C24.9418 17.2794 24.9765 17.3494 24.9891 17.4161C25.0144 17.5368 25.0333 17.6576 25.0522 17.7815L25.0711 17.9531C25.0711 18.0008 25.0711 18.0484 25.0711 18.0992C25.0784 18.1274 25.0837 18.1561 25.0868 18.185Z" fill="#FD0075"/>
    <path d="M20.8097 12.6405L18.4364 14.6454L18.0676 14.9631L17.9699 15.0425L17.6201 15.3381L14.1057 18.312L1.61496 7.7444L1.50463 7.64908C1.11135 7.31195 0.78421 6.9035 0.540169 6.4449C0.0548891 5.56272 -0.110404 4.53769 0.0726958 3.54599C0.255797 2.55427 0.775855 1.65784 1.54349 1.01073C2.31112 0.363621 3.27839 0.00626592 4.27904 8.16315e-05C5.27969 -0.00610265 6.25123 0.339271 7.02668 0.976842L7.08026 1.02132L7.11177 1.04356L20.8097 12.6405Z" fill="#00BE9C"/>
    <path d="M69.3703 25.7737C69.2026 25.1273 68.8776 24.5333 68.4247 24.0452C67.9308 23.5387 67.3201 23.1633 66.6471 22.9523C65.749 22.6752 64.8123 22.5465 63.8734 22.571C63.4398 22.5697 63.0065 22.591 62.575 22.6346C62.1463 22.6758 61.7397 22.7267 61.352 22.787C60.9643 22.8474 60.6082 22.9141 60.2804 22.9904C59.9526 23.0667 59.6784 23.1365 59.461 23.2065L59.94 26.2566C60.4628 26.0687 61.0036 25.9366 61.5538 25.8627C62.1797 25.768 62.8118 25.7213 63.4449 25.7229C64.403 25.7229 65.0754 25.9177 65.4621 26.3075C65.6586 26.5123 65.8114 26.7556 65.9111 27.0222C66.0109 27.2888 66.0555 27.5734 66.042 27.858V28.2138C65.7405 28.1323 65.4325 28.077 65.1216 28.0486C64.6904 28.0025 64.2568 27.9812 63.823 27.9851C63.1198 27.982 62.4183 28.0544 61.7302 28.2012C61.0978 28.3279 60.492 28.5643 59.94 28.9001C59.4173 29.2172 58.9834 29.6634 58.6792 30.1965C58.3513 30.8037 58.1903 31.4881 58.2128 32.179C58.1919 32.8872 58.3298 33.5909 58.6162 34.238C58.8767 34.7868 59.277 35.2559 59.7761 35.5978C60.3235 35.9626 60.9357 36.2172 61.579 36.3476C62.3461 36.5071 63.1281 36.5838 63.9113 36.5763C65.0715 36.589 66.2308 36.5083 67.3783 36.3349C68.3365 36.1739 69.0846 36.0341 69.6225 35.9155V28.0359C69.6398 27.2738 69.555 26.513 69.3703 25.7737ZM66.042 33.5517C65.8402 33.5835 65.5723 33.6088 65.2351 33.6279C64.8979 33.647 64.5448 33.6533 64.1761 33.6533C63.6137 33.6821 63.0534 33.5638 62.5498 33.3101C62.3471 33.1804 62.1843 32.9964 62.0797 32.7786C61.975 32.5609 61.9326 32.3181 61.9572 32.0774C61.9468 31.8085 62.0172 31.5428 62.1589 31.3148C62.2979 31.1071 62.4894 30.9403 62.7136 30.8319C62.9711 30.705 63.2483 30.6234 63.5331 30.5905C63.8632 30.5459 64.196 30.5246 64.5291 30.5269C64.8072 30.528 65.0849 30.5449 65.3611 30.5777C65.5899 30.5987 65.8171 30.6326 66.042 30.6794V33.5517Z" fill="#001F60"/>
    <path d="M71.9171 29.6118C71.9106 28.6804 72.0685 27.7551 72.3836 26.8795C72.6766 26.045 73.1383 25.2807 73.7394 24.6354C74.3406 23.9901 75.0681 23.4775 75.8759 23.1302C76.7846 22.743 77.7639 22.5525 78.7504 22.5711C80.0067 22.5562 81.2523 22.8073 82.4065 23.3081L81.6248 26.3329C81.2463 26.1892 80.8588 26.0703 80.4649 25.9771C80.0018 25.8706 79.5279 25.8195 79.0529 25.8245C77.9435 25.8245 77.1155 26.1719 76.5692 26.8667C75.9919 27.66 75.7025 28.6292 75.7498 29.6118C75.7498 30.8129 76.0051 31.7471 76.5188 32.4079C77.0326 33.0687 77.9276 33.3992 79.2043 33.3992C79.6942 33.3951 80.1832 33.3526 80.6666 33.2721C81.1598 33.1935 81.6422 33.0569 82.1039 32.8654L82.6334 35.9665C82.1034 36.1789 81.5546 36.3405 80.9944 36.4494C80.2801 36.5895 79.5537 36.6576 78.826 36.6526C77.7583 36.6776 76.6963 36.492 75.6993 36.1062C74.8801 35.7781 74.1436 35.2702 73.5435 34.6193C72.9738 33.9789 72.5518 33.2195 72.308 32.3951C72.0404 31.4922 71.9087 30.5541 71.9171 29.6118Z" fill="#001F60"/>
    <path d="M95.5435 25.7737C95.3758 25.1273 95.0508 24.5333 94.5979 24.0452C94.1039 23.5387 93.4932 23.1633 92.8204 22.9523C91.9223 22.6752 90.9856 22.5465 90.0467 22.571C89.6131 22.5697 89.1796 22.591 88.7482 22.6346C88.3195 22.6758 87.9129 22.7267 87.5252 22.787C87.1376 22.8474 86.7814 22.9141 86.4536 22.9904C86.1258 23.0667 85.8516 23.1365 85.6341 23.2065L86.1132 26.2566C86.6359 26.0687 87.1769 25.9366 87.7269 25.8627C88.3529 25.768 88.9851 25.7213 89.618 25.7229C90.5762 25.7229 91.2487 25.9177 91.6352 26.3075C91.8318 26.5123 91.9847 26.7556 92.0844 27.0222C92.1841 27.2888 92.2286 27.5734 92.2152 27.858V28.2138C91.9136 28.1323 91.6058 28.077 91.2949 28.0486C90.8635 28.0025 90.43 27.9812 89.9963 27.9851C89.293 27.982 88.5915 28.0544 87.9035 28.2012C87.271 28.3279 86.6653 28.5643 86.1132 28.9001C85.5904 29.2172 85.1566 29.6634 84.8525 30.1965C84.5245 30.8037 84.3634 31.4881 84.386 32.179C84.3651 32.8872 84.503 33.5909 84.7895 34.238C85.0498 34.7868 85.4501 35.2559 85.9493 35.5978C86.4967 35.9626 87.1089 36.2172 87.7522 36.3476C88.5193 36.5071 89.3012 36.5838 90.0845 36.5763C91.2447 36.589 92.4041 36.5083 93.5515 36.3349C94.5097 36.1739 95.2578 36.0341 95.7957 35.9155V28.0359C95.813 27.2738 95.7282 26.513 95.5435 25.7737ZM92.2152 33.5517C92.0134 33.5835 91.7455 33.6088 91.4083 33.6279C91.0711 33.647 90.718 33.6533 90.3493 33.6533C89.7869 33.6821 89.2267 33.5638 88.7229 33.3101C88.5203 33.1804 88.3576 32.9964 88.2529 32.7786C88.1483 32.5609 88.1059 32.3181 88.1303 32.0774C88.12 31.8085 88.1903 31.5428 88.3321 31.3148C88.4711 31.1071 88.6627 30.9403 88.8868 30.8319C89.1444 30.705 89.4215 30.6234 89.7063 30.5905C90.0364 30.5459 90.3692 30.5246 90.7022 30.5269C90.9804 30.528 91.2582 30.5449 91.5344 30.5777C91.7631 30.5987 91.9903 30.6326 92.2152 30.6794V33.5517Z" fill="#001F60"/>
    <path d="M107.294 20.3313V23.2289C106.887 23.0471 106.466 22.9025 106.033 22.7968C105.574 22.69 105.105 22.6388 104.634 22.6443C103.769 22.627 102.911 22.7915 102.112 23.1272C101.394 23.4392 100.759 23.9183 100.259 24.5252C99.7294 25.1813 99.3351 25.9375 99.0992 26.7493C98.8197 27.702 98.6837 28.6917 98.6958 29.6851C98.6811 30.667 98.839 31.6437 99.1622 32.57C99.45 33.3883 99.9102 34.1341 100.511 34.756C101.124 35.3731 101.865 35.8461 102.68 36.1413C103.618 36.4766 104.609 36.6402 105.605 36.6242C106.059 36.6242 106.534 36.602 107.029 36.5607C107.524 36.5193 108.013 36.4622 108.492 36.3955C108.971 36.3287 109.437 36.2461 109.866 36.1541C110.295 36.0619 110.689 35.9633 111.026 35.8617V19.6895L107.294 20.3313ZM107.294 33.269C107.108 33.3041 106.875 33.3326 106.588 33.358C106.301 33.3835 105.989 33.3961 105.642 33.3961C104.618 33.3961 103.843 33.0403 103.323 32.3286C102.766 31.4983 102.492 30.5081 102.541 29.5072C102.541 27.0671 103.432 25.847 105.214 25.847C105.601 25.847 105.987 25.8982 106.361 25.9995C106.685 26.0786 106.996 26.2072 107.281 26.3808L107.294 33.269Z" fill="#001F60"/>
    <path d="M124.894 24.3121C123.801 23.1492 122.313 22.5689 120.43 22.571C119.622 22.575 118.822 22.7346 118.073 23.0412C117.31 23.3429 116.619 23.8017 116.043 24.3884C115.424 25.0253 114.939 25.7818 114.618 26.6125C114.238 27.6048 114.053 28.6626 114.076 29.7262C114.068 30.6578 114.209 31.5845 114.492 32.4714C114.754 33.291 115.194 34.0419 115.778 34.67C116.399 35.3139 117.152 35.8127 117.984 36.1316C118.979 36.5074 120.036 36.6885 121.099 36.6653C121.57 36.6653 122.042 36.6398 122.51 36.589C122.981 36.5382 123.422 36.4747 123.835 36.3984C124.213 36.3301 124.587 36.241 124.957 36.1316C125.233 36.0487 125.504 35.9423 125.764 35.8137L125.259 32.7382C124.732 32.9548 124.182 33.1125 123.62 33.2085C122.951 33.3358 122.271 33.3997 121.59 33.3991C120.683 33.4463 119.784 33.2064 119.018 32.7128C118.712 32.504 118.456 32.2291 118.269 31.9082C118.081 31.5873 117.967 31.2283 117.934 30.8573H126.444C126.459 30.654 126.479 30.4188 126.494 30.1582C126.51 29.8977 126.52 29.6531 126.52 29.4339C126.529 27.178 125.986 25.4708 124.894 24.3121ZM117.934 28.2646C117.984 27.94 118.064 27.6209 118.174 27.3115C118.275 27.0084 118.433 26.728 118.64 26.4854C118.848 26.2419 119.106 26.0468 119.396 25.9135C119.737 25.7605 120.108 25.6867 120.481 25.6974C120.859 25.6849 121.235 25.7633 121.578 25.9262C121.858 26.0687 122.107 26.2676 122.309 26.5108C122.503 26.7512 122.648 27.0276 122.737 27.3241C122.83 27.6341 122.885 27.9542 122.901 28.2773L117.934 28.2646Z" fill="#001F60"/>
    <path d="M136.844 29.2053C136.844 27.9852 136.689 27.121 136.378 26.6126C136.067 26.1043 135.533 25.8501 134.777 25.8501C134.541 25.8501 134.297 25.8501 134.045 25.8882C133.793 25.9264 133.551 25.9422 133.315 25.9772V36.2969H129.557V23.3845C129.872 23.2988 130.25 23.2098 130.679 23.1176C131.108 23.0254 131.562 22.9397 132.041 22.8634C132.52 22.7872 133.012 22.7268 133.516 22.6855C134.021 22.6443 134.515 22.622 135.004 22.622C135.798 22.5932 136.59 22.7183 137.336 22.9905C137.872 23.1994 138.37 23.4956 138.812 23.8674C139.926 23.0935 141.24 22.661 142.594 22.622C143.485 22.5907 144.372 22.7421 145.204 23.0668C145.848 23.3367 146.41 23.7754 146.83 24.3377C147.248 24.9106 147.532 25.5708 147.662 26.2694C147.82 27.09 147.896 27.9246 147.889 28.7605V36.3096H144.137V29.2053C144.137 27.9852 143.983 27.121 143.672 26.6126C143.36 26.1043 142.826 25.8501 142.07 25.8501C141.783 25.8646 141.499 25.9159 141.226 26.0025C140.91 26.0843 140.608 26.2129 140.33 26.3838C140.45 26.7854 140.525 27.1988 140.558 27.6166C140.592 28.0487 140.608 28.5094 140.608 29.0019V36.3096H136.844V29.2053Z" fill="#001F60"/>
    <path d="M162.816 22.9269C162.055 25.5005 161.263 27.9153 160.44 30.1711C159.616 32.4269 158.715 34.6129 157.735 36.7289C157.43 37.4029 157.075 38.053 156.674 38.6734C156.352 39.1688 155.962 39.6141 155.513 39.9951C155.092 40.3411 154.606 40.6003 154.086 40.7577C153.482 40.9278 152.857 41.0091 152.229 40.9992C151.683 41.0026 151.138 40.9472 150.603 40.834C150.185 40.7467 149.775 40.6234 149.377 40.4654L150.033 37.4407C150.369 37.5617 150.715 37.6551 151.066 37.7202C151.379 37.7714 151.695 37.797 152.011 37.7965C152.294 37.8149 152.577 37.776 152.844 37.6821C153.111 37.5883 153.356 37.4413 153.566 37.25C153.97 36.8133 154.283 36.2989 154.487 35.7377C153.624 34.0432 152.766 32.1368 151.911 30.0186C150.983 27.699 150.178 25.3319 149.497 22.9269H153.481C153.651 23.5878 153.849 24.3038 154.076 25.0747C154.304 25.8437 154.543 26.6253 154.798 27.4132C155.054 28.2012 155.308 28.9669 155.57 29.7136C155.832 30.4603 156.081 31.137 156.318 31.747C156.538 31.137 156.765 30.457 157.001 29.7136C157.237 28.9701 157.468 28.2012 157.698 27.4132C157.928 26.6253 158.145 25.8437 158.357 25.0747C158.568 24.3059 158.757 23.5878 158.924 22.9269H162.816Z" fill="#001F60"/>
    <path d="M69.3703 9.20142C69.2018 8.55529 68.8768 7.96142 68.4247 7.47299C67.9298 6.96754 67.3195 6.59223 66.6471 6.38001C65.749 6.10292 64.8123 5.97417 63.8734 5.99875C63.4354 5.99875 63.0036 6.02098 62.5749 6.06228C62.1463 6.10359 61.7397 6.15442 61.352 6.21479C60.9643 6.27516 60.6082 6.34188 60.2804 6.41814C59.9525 6.49439 59.6783 6.56747 59.4608 6.6342L59.9399 9.68436C60.4652 9.49745 61.0081 9.36543 61.5601 9.29038C62.1862 9.19732 62.8183 9.15059 63.4511 9.15058C64.4092 9.15058 65.0817 9.34545 65.4683 9.7352C65.6636 9.94069 65.8151 10.1842 65.9137 10.4508C66.0125 10.7174 66.0561 11.0015 66.042 11.2857V11.6416C65.7401 11.5616 65.4323 11.5064 65.1216 11.4763C64.6901 11.4318 64.2568 11.4106 63.823 11.4128C63.1199 11.4113 62.4185 11.4837 61.7302 11.6288C61.0983 11.757 60.4927 11.9934 59.9399 12.3278C59.4173 12.6449 58.9833 13.0911 58.6792 13.6242C58.352 14.2316 58.191 14.9159 58.2128 15.6067C58.1919 16.3149 58.3298 17.0187 58.6162 17.6657C58.8757 18.2149 59.2762 18.6845 59.7761 19.0255C60.3235 19.3903 60.9357 19.6449 61.579 19.7753C62.3461 19.9348 63.1279 20.0115 63.9113 20.0042C65.0716 20.0183 66.2311 19.9376 67.3783 19.7626C68.3365 19.5995 69.0846 19.4597 69.6225 19.3432V11.4636C69.6395 10.7016 69.5548 9.94065 69.3703 9.20142ZM66.042 16.9794C65.7747 17.0207 65.5053 17.0462 65.2351 17.0556C64.8978 17.0556 64.5448 17.081 64.1761 17.081C63.6137 17.1098 63.0534 16.9915 62.5497 16.7378C62.3468 16.6084 62.1838 16.4244 62.0792 16.2066C61.9745 15.9888 61.9323 15.7459 61.9571 15.5051C61.9468 15.2362 62.017 14.9705 62.1589 14.7426C62.2979 14.5348 62.4894 14.368 62.7136 14.2596C62.9717 14.1342 63.2485 14.0526 63.5331 14.0182C63.8633 13.975 64.1961 13.9539 64.5291 13.9545C64.8071 13.9557 65.0849 13.9726 65.3611 14.0055C65.6763 14.0404 65.8906 14.0722 66.042 14.1071V16.9794Z" fill="#001F60"/>
    <path d="M81.0447 9.69672C80.7075 9.61093 80.3136 9.52197 79.8597 9.42982C79.378 9.33451 78.8882 9.28767 78.3972 9.29002C78.1146 9.29395 77.8326 9.31517 77.5525 9.35357C77.3014 9.38042 77.0526 9.42716 76.8087 9.49337V19.7114H73.0516V7.06595C73.831 6.79761 74.6243 6.57273 75.4282 6.39237C76.4343 6.17057 77.462 6.06398 78.4917 6.07464C78.6935 6.07464 78.9362 6.07464 79.223 6.11277C79.5098 6.15089 79.7934 6.17314 80.0803 6.21444C80.3672 6.25575 80.6508 6.30658 80.9376 6.36695C81.1876 6.4154 81.4325 6.48775 81.6689 6.583L81.0447 9.69672Z" fill="#001F60"/>
    <path d="M82.8096 13.0392C82.8031 12.1077 82.961 11.1825 83.2761 10.3068C83.5732 9.48166 84.0319 8.72526 84.6251 8.08269C85.229 7.4357 85.9586 6.9209 86.7684 6.57033C87.6776 6.18451 88.6565 5.99405 89.6429 6.01112C90.8994 5.99625 92.1449 6.24738 93.299 6.74824L92.5174 9.773C92.1388 9.62919 91.7514 9.51033 91.3574 9.41714C90.8944 9.31071 90.4204 9.25952 89.9455 9.26464C88.836 9.26464 88.0081 9.61202 87.4618 10.3068C86.8852 11.1005 86.5961 12.0693 86.6423 13.0519C86.6423 14.2572 86.8986 15.1891 87.4113 15.8479C87.924 16.5067 88.8191 16.8371 90.0967 16.8392C90.5868 16.8367 91.0759 16.7942 91.5592 16.7121C92.0526 16.6349 92.5352 16.4984 92.9965 16.3055L93.526 19.4064C92.9964 19.6205 92.4474 19.7821 91.8869 19.8894C91.1729 20.0312 90.4463 20.0993 89.7185 20.0927C88.6508 20.1192 87.5884 19.9335 86.5919 19.5462C85.7726 19.2182 85.0361 18.7102 84.4359 18.0593C83.8657 17.4194 83.4437 16.6597 83.2005 15.8352C82.9312 14.9284 82.7995 13.9857 82.8096 13.0392Z" fill="#001F60"/>
    <path d="M107.495 12.1753V17.1191L103.738 17.7545V12.6327C103.738 11.4127 103.581 10.5485 103.272 10.0401C102.963 9.53178 102.386 9.27759 101.545 9.27759C101.227 9.27518 100.911 9.30499 100.599 9.36656C100.307 9.42375 100.042 9.4873 99.8048 9.5572V18.4345L96.0479 19.07V0.610034L99.8048 0V6.40536C100.123 6.30361 100.447 6.22294 100.776 6.16388C101.154 6.08915 101.538 6.05086 101.923 6.0495C102.838 6.02074 103.75 6.17182 104.608 6.49431C105.28 6.76029 105.871 7.19837 106.323 7.76523C106.764 8.33294 107.075 8.99294 107.231 9.697C107.414 10.5099 107.503 11.3416 107.495 12.1753Z" fill="#001F60"/>
    <path d="M114.656 6.35437V15.8988L110.899 16.5375V6.35437H114.656Z" fill="#001F60"/>
    <path d="M121.993 17.0045C122.489 17.0356 122.987 16.9665 123.456 16.8012C123.599 16.7296 123.716 16.6157 123.793 16.4749C123.869 16.334 123.901 16.173 123.884 16.0132C123.873 15.8424 123.816 15.678 123.72 15.5371C123.623 15.3962 123.49 15.284 123.336 15.2126C122.796 14.9053 122.231 14.646 121.647 14.4373C121.101 14.2369 120.567 14.0078 120.046 13.751C119.596 13.5344 119.183 13.2469 118.823 12.8996C118.483 12.5646 118.217 12.162 118.041 11.7176C117.843 11.1902 117.749 10.629 117.764 10.0654C117.742 9.49403 117.857 8.92576 118.098 8.40828C118.339 7.89081 118.7 7.43925 119.15 7.09151C120.075 6.36497 121.344 6.00065 122.958 5.99852C123.736 5.99635 124.513 6.06869 125.278 6.21458C125.879 6.32122 126.468 6.47851 127.043 6.68481L126.388 9.63331C125.921 9.47168 125.445 9.33591 124.963 9.22661C124.396 9.10273 123.816 9.04306 123.235 9.0487C122.059 9.0487 121.47 9.37913 121.47 10.04C121.468 10.1793 121.493 10.3178 121.546 10.4467C121.619 10.5875 121.727 10.7061 121.861 10.7898C122.06 10.9271 122.271 11.0461 122.491 11.1457C122.816 11.3033 123.149 11.4443 123.487 11.5683C124.189 11.8225 124.871 12.1272 125.53 12.4801C125.998 12.7276 126.423 13.0494 126.79 13.4333C127.09 13.7696 127.308 14.1692 127.433 14.6026C127.568 15.081 127.631 15.5766 127.622 16.0736C127.622 17.3933 127.132 18.3908 126.148 19.0666C125.164 19.7423 123.773 20.0802 121.975 20.0802C120.986 20.0966 119.999 19.9898 119.037 19.7625C118.483 19.6328 117.94 19.4629 117.411 19.2541L118.041 16.1784C118.679 16.4334 119.337 16.6333 120.008 16.7758C120.66 16.9213 121.326 16.998 121.993 17.0045Z" fill="#001F60"/>
    <path d="M112.711 0.352417H112.828H112.897H112.96H113.017L113.131 0.374658C113.333 0.419498 113.525 0.501343 113.698 0.616129C113.806 0.686859 113.905 0.770029 113.994 0.863955L114.051 0.9275V0.946564L114.937 2.01094L114.196 2.96095L114.07 3.11346L114.038 3.15157L113.922 3.2882L112.774 4.6703L111.624 3.2882L111.507 3.15157L111.476 3.11346L111.356 2.9673L110.581 2.03318L111.479 0.956096L111.51 0.921147L111.529 0.892551C111.615 0.800879 111.711 0.719818 111.816 0.651078C111.972 0.548371 112.143 0.472161 112.324 0.425494C112.35 0.416138 112.378 0.409745 112.406 0.40643C112.451 0.394613 112.498 0.38612 112.544 0.381013H112.61H112.699L112.711 0.352417Z" fill="#FD0075"/>
    <path d="M169.761 17.3939C168.056 17.3939 166.672 18.7847 166.672 20.5C166.672 22.2153 168.056 23.606 169.761 23.606C171.468 23.606 172.85 22.2153 172.85 20.5C172.85 18.7847 171.468 17.3939 169.761 17.3939ZM169.761 23.0791C168.345 23.0791 167.197 21.924 167.197 20.5C167.197 19.0759 168.345 17.9208 169.761 17.9208C171.179 17.9208 172.327 19.0759 172.327 20.5C172.327 21.924 171.179 23.0791 169.761 23.0791ZM170.365 20.7585C170.605 20.6698 170.905 20.4189 170.905 19.9322C170.905 19.4385 170.592 19.0232 169.911 19.0232H168.838C168.807 19.0232 168.782 19.0482 168.782 19.0786V21.9213C168.782 21.9518 168.807 21.9767 168.838 21.9767H169.214C169.243 21.9767 169.268 21.9518 169.268 21.9213V20.8412H169.88L170.395 21.9448C170.404 21.9643 170.424 21.9767 170.445 21.9767H170.872C170.881 21.9769 170.891 21.9745 170.899 21.9699C170.907 21.9654 170.914 21.9587 170.919 21.9508C170.924 21.9427 170.926 21.9336 170.926 21.9242C170.928 21.9147 170.925 21.9054 170.92 21.897L170.365 20.7585ZM169.83 20.4514H169.268V19.4253H169.844C170.175 19.4253 170.401 19.6007 170.401 19.9488C170.401 20.274 170.196 20.4514 169.83 20.4514Z" fill="#001F60"/>
  </g>
  <defs>
    <clipPath id="clip0_122_630">
      <rect width="173" height="41" fill="white"/>
    </clipPath>
  </defs>
</svg>