<svg xmlns="http://www.w3.org/2000/svg" width="680" height="135" viewBox="0 0 680 135" fill="none">
  <path d="M3.41206 134.627C-5.65117 134.627 -13.4108 133.135 -19.8668 130.151C-26.1986 127.043 -31.9097 122.568 -37 116.724L-13.1625 92.854C-10.8036 95.8378 -8.19632 98.0757 -5.34078 99.5676C-2.3611 101.059 1.05313 101.805 4.9019 101.805C8.00574 101.805 10.7992 101.184 13.2823 99.9405C15.8895 98.573 17.938 96.5838 19.4279 93.973C21.0419 91.2378 21.8489 87.7568 21.8489 83.5297V-0.389192H59.2813V82.0378C59.2813 92.9784 57.0465 102.365 52.577 110.197C48.1074 118.03 41.7135 124.059 33.3952 128.286C25.0769 132.514 15.0825 134.627 3.41206 134.627Z" fill="white" fill-opacity="0.1"/>
  <path d="M144.637 135C134.209 135 124.587 133.259 115.772 129.778C107.081 126.297 99.4455 121.449 92.8653 115.232C86.4093 109.016 81.3811 101.681 77.7806 93.227C74.1802 84.773 72.38 75.6351 72.38 65.8135C72.38 55.8676 74.1181 46.7297 77.5944 38.4C81.1949 30.0703 86.2231 22.7973 92.6791 16.5811C99.1351 10.3649 106.708 5.57838 115.399 2.22162C124.214 -1.25946 133.836 -3 144.265 -3C154.694 -3 164.254 -1.25946 172.945 2.22162C181.759 5.57838 189.395 10.3649 195.851 16.5811C202.307 22.7973 207.273 30.1324 210.749 38.5865C214.35 46.9162 216.15 56.0541 216.15 66C216.15 75.8216 214.35 84.9595 210.749 93.4135C207.273 101.743 202.307 109.078 195.851 115.419C189.395 121.635 181.822 126.484 173.131 129.965C164.44 133.322 154.942 135 144.637 135ZM144.265 102.178C151.218 102.178 157.239 100.686 162.329 97.7027C167.42 94.7189 171.331 90.4919 174.062 85.0216C176.793 79.5513 178.159 73.1486 178.159 65.8135C178.159 60.3432 177.352 55.4324 175.738 51.0811C174.248 46.6054 172.013 42.8135 169.034 39.7054C166.054 36.473 162.454 34.0487 158.232 32.4324C154.135 30.6919 149.479 29.8216 144.265 29.8216C137.312 29.8216 131.291 31.3135 126.201 34.2973C121.11 37.1568 117.199 41.3216 114.468 46.7919C111.737 52.1378 110.371 58.4784 110.371 65.8135C110.371 71.4081 111.116 76.4432 112.606 80.9189C114.22 85.3946 116.517 89.2486 119.496 92.4811C122.476 95.5892 126.014 98.0135 130.111 99.7541C134.333 101.37 139.051 102.178 144.265 102.178Z" fill="white" fill-opacity="0.1"/>
  <path d="M231.488 132.389V-0.389192H268.734V132.389H231.488Z" fill="white" fill-opacity="0.1"/>
  <path d="M290.776 132.389V-0.389192H316.848L328.022 27.5838V132.389H290.776ZM382.029 132.389L305.116 35.6027L316.848 -0.389192L393.762 96.3973L382.029 132.389ZM382.029 132.389L372.718 102.924V-0.389192H409.964V132.389H382.029Z" fill="white" fill-opacity="0.1"/>
  <path d="M521.05 134.627C509.38 134.627 499.199 132.265 490.509 127.541C481.818 122.692 475.051 116.041 470.209 107.586C465.367 99.1324 462.946 89.4351 462.946 78.4946V-0.389192H500.193V81.8513C500.193 86.0784 501.124 89.6838 502.986 92.6676C504.848 95.6513 507.331 97.9513 510.435 99.5676C513.663 101.059 517.202 101.805 521.05 101.805C525.023 101.805 528.5 101.059 531.479 99.5676C534.583 97.9513 537.004 95.7135 538.742 92.854C540.48 89.8703 541.349 86.2649 541.349 82.0378V-0.389192H578.782V78.6811C578.782 89.6216 576.361 99.3189 571.519 107.773C566.801 116.103 560.097 122.692 551.406 127.541C542.839 132.265 532.721 134.627 521.05 134.627Z" fill="white" fill-opacity="0.1"/>
  <path d="M639.689 134.627C628.391 134.627 618.521 133.011 610.079 129.778C601.76 126.422 594.063 121.138 586.986 113.927L610.265 90.6162C615.107 95.2162 620.197 98.7595 625.536 101.246C630.875 103.608 636.586 104.789 642.669 104.789C647.759 104.789 651.608 104.043 654.215 102.551C656.823 100.935 658.126 98.7595 658.126 96.0243C658.126 93.2892 657.009 91.0514 654.774 89.3108C652.539 87.4459 649.56 85.8297 645.835 84.4622C642.235 82.9703 638.2 81.4784 633.73 79.9865C629.385 78.4946 625.039 76.6919 620.694 74.5784C616.349 72.4649 612.314 69.9162 608.589 66.9324C604.989 63.8243 602.071 60.0324 599.836 55.5568C597.601 50.9568 596.484 45.3622 596.484 38.773C596.484 30.1946 598.532 22.7973 602.63 16.5811C606.727 10.3649 612.5 5.64054 619.949 2.4081C627.398 -0.948654 636.151 -2.62703 646.208 -2.62703C656.14 -2.62703 665.327 -1.01082 673.77 2.22162C682.336 5.32972 689.413 9.8054 695 15.6486L671.535 38.9594C667.438 34.9811 663.341 32.0594 659.244 30.1946C655.147 28.2054 650.677 27.2108 645.835 27.2108C641.986 27.2108 638.883 27.8324 636.524 29.0757C634.289 30.3189 633.171 32.1838 633.171 34.6703C633.171 37.2811 634.289 39.4568 636.524 41.1973C638.758 42.8135 641.676 44.3054 645.276 45.673C649.001 47.0405 653.036 48.4703 657.381 49.9622C661.851 51.454 666.258 53.2568 670.604 55.3703C674.949 57.3595 678.922 59.9703 682.523 63.2027C686.247 66.3108 689.227 70.227 691.462 74.9513C693.696 79.6757 694.814 85.3946 694.814 92.1081C694.814 105.659 689.972 116.165 680.288 123.624C670.728 130.959 657.195 134.627 639.689 134.627Z" fill="white" fill-opacity="0.1"/>
</svg>